HIERARCHY
ROOT hip
{
  OFFSET 0 90.174 2.4664
  CHANNELS 6 Xposition Yposition Zposition Zrotation Xrotation Yrotation
  JOINT abdomen
  {
    OFFSET 0 -1.186 -1.5018
    CHANNELS 6 Xposition Yposition Zposition Zrotation Xrotation Yrotation
    JOINT abdomen2
    {
      OFFSET 0 9.964 0.2134
      CHANNELS 6 Xposition Yposition Zposition Zrotation Xrotation Yrotation
      JOINT chest
      {
        OFFSET 0 13.134 -3.2573
        CHANNELS 6 Xposition Yposition Zposition Zrotation Xrotation Yrotation
        JOINT neck
        {
          OFFSET 0 20.686 -1.6905
          CHANNELS 6 Xposition Yposition Zposition Zrotation Xrotation Yrotation
          JOINT head
          {
            OFFSET 0 7.238 -0.1237
            CHANNELS 6 Xposition Yposition Zposition Zrotation Xrotation Yrotation
            End Site
            {
              OFFSET 0 0 0
            }
          }
        }
        JOINT lCollar
        {
          OFFSET 1.7069 20.075 5.0056
          CHANNELS 6 Xposition Yposition Zposition Zrotation Xrotation Yrotation
          JOINT lShldr
          {
            OFFSET 13.6458 -0.047 -4.849
            CHANNELS 6 Xposition Yposition Zposition Zrotation Xrotation Yrotation
            JOINT lForeArm
            {
              OFFSET 28.3255 -0.9759 2.2888
              CHANNELS 6 Xposition Yposition Zposition Zrotation Xrotation Yrotation
              JOINT lHand
              {
                OFFSET 22.1583 -0.53 10.8316
                CHANNELS 6 Xposition Yposition Zposition Zrotation Xrotation Yrotation
                JOINT lThumb1
                {
                  OFFSET 0.786 0.112 2.5817
                  CHANNELS 6 Xposition Yposition Zposition Zrotation Xrotation Yrotation
                  JOINT lThumb2
                  {
                    OFFSET 0.3601 -0.878 4.2331
                    CHANNELS 6 Xposition Yposition Zposition Zrotation Xrotation Yrotation
                    JOINT lThumb2_End
                    {
                      OFFSET 1.8127 -1.216 2.2227
                      CHANNELS 6 Xposition Yposition Zposition Zrotation Xrotation Yrotation
                      End Site
                      {
                        OFFSET 0.0181 -0.0122 0.0222
                      }
                    }
                  }
                }
                JOINT lCarpal1
                {
                  OFFSET 0.9571 1.114 1.7695
                  CHANNELS 6 Xposition Yposition Zposition Zrotation Xrotation Yrotation
                  JOINT lIndex1
                  {
                    OFFSET 4.1246 0.487 4.1451
                    CHANNELS 6 Xposition Yposition Zposition Zrotation Xrotation Yrotation
                    JOINT lIndex2
                    {
                      OFFSET 3.4052 -1.454 2.7682
                      CHANNELS 6 Xposition Yposition Zposition Zrotation Xrotation Yrotation
                      JOINT lIndex2_End
                      {
                        OFFSET 1.4531 -1.795 1.2713
                        CHANNELS 6 Xposition Yposition Zposition Zrotation Xrotation Yrotation
                        End Site
                        {
                          OFFSET 0.0145 -0.0179 0.0127
                        }
                      }
                    }
                  }
                  JOINT lMid1
                  {
                    OFFSET 5.6954 0.21 2.1184
                    CHANNELS 6 Xposition Yposition Zposition Zrotation Xrotation Yrotation
                    JOINT lMid2
                    {
                      OFFSET 3.9766 -1.54 2.3863
                      CHANNELS 6 Xposition Yposition Zposition Zrotation Xrotation Yrotation
                      JOINT lMid2_End
                      {
                        OFFSET 1.4042 -1.926 1.125
                        CHANNELS 6 Xposition Yposition Zposition Zrotation Xrotation Yrotation
                        End Site
                        {
                          OFFSET 0.014 -0.0193 0.0113
                        }
                      }
                    }
                  }
                }
                JOINT lCarpal2
                {
                  OFFSET 2.0956 0.66 -0.3894
                  CHANNELS 6 Xposition Yposition Zposition Zrotation Xrotation Yrotation
                  JOINT lRing1
                  {
                    OFFSET 5.0395 -0.09 2.4971
                    CHANNELS 6 Xposition Yposition Zposition Zrotation Xrotation Yrotation
                    JOINT lRing2
                    {
                      OFFSET 3.7921 -1.552 1.4806
                      CHANNELS 6 Xposition Yposition Zposition Zrotation Xrotation Yrotation
                      JOINT lRing2_End
                      {
                        OFFSET 1.4655 -1.808 0.9609
                        CHANNELS 6 Xposition Yposition Zposition Zrotation Xrotation Yrotation
                        End Site
                        {
                          OFFSET 0.0147 -0.0181 0.0096
                        }
                      }
                    }
                  }
                  JOINT lPinky1
                  {
                    OFFSET 4.9141 -1.269 0.3591
                    CHANNELS 6 Xposition Yposition Zposition Zrotation Xrotation Yrotation
                    JOINT lPinky2
                    {
                      OFFSET 3.1477 -1.685 0.8462
                      CHANNELS 6 Xposition Yposition Zposition Zrotation Xrotation Yrotation
                      JOINT lPinky2_End
                      {
                        OFFSET 0.8055 -1.585 0.7955
                        CHANNELS 6 Xposition Yposition Zposition Zrotation Xrotation Yrotation
                        End Site
                        {
                          OFFSET 0.0081 -0.0158 0.008
                        }
                      }
                    }
                  }
                }
              }
            }
          }
        }
        JOINT rCollar
        {
          OFFSET -1.7069 20.075 5.0056
          CHANNELS 6 Xposition Yposition Zposition Zrotation Xrotation Yrotation
          JOINT rShldr
          {
            OFFSET -13.6458 -0.047 -4.849
            CHANNELS 6 Xposition Yposition Zposition Zrotation Xrotation Yrotation
            JOINT rForeArm
            {
              OFFSET -28.3255 -0.9759 2.2888
              CHANNELS 6 Xposition Yposition Zposition Zrotation Xrotation Yrotation
              JOINT rHand
              {
                OFFSET -22.1583 -0.53 10.8316
                CHANNELS 6 Xposition Yposition Zposition Zrotation Xrotation Yrotation
                JOINT rThumb1
                {
                  OFFSET -0.786 0.112 2.5817
                  CHANNELS 6 Xposition Yposition Zposition Zrotation Xrotation Yrotation
                  JOINT rThumb2
                  {
                    OFFSET -0.3601 -0.878 4.2331
                    CHANNELS 6 Xposition Yposition Zposition Zrotation Xrotation Yrotation
                    JOINT rThumb2_End
                    {
                      OFFSET -1.8127 -1.216 2.2227
                      CHANNELS 6 Xposition Yposition Zposition Zrotation Xrotation Yrotation
                      End Site
                      {
                        OFFSET -0.0181 -0.0122 0.0222
                      }
                    }
                  }
                }
                JOINT rCarpal1
                {
                  OFFSET -0.9571 1.114 1.7695
                  CHANNELS 6 Xposition Yposition Zposition Zrotation Xrotation Yrotation
                  JOINT rIndex1
                  {
                    OFFSET -4.1246 0.487 4.1451
                    CHANNELS 6 Xposition Yposition Zposition Zrotation Xrotation Yrotation
                    JOINT rIndex2
                    {
                      OFFSET -3.4052 -1.454 2.7682
                      CHANNELS 6 Xposition Yposition Zposition Zrotation Xrotation Yrotation
                      JOINT rIndex2_End
                      {
                        OFFSET -1.4531 -1.795 1.2713
                        CHANNELS 6 Xposition Yposition Zposition Zrotation Xrotation Yrotation
                        End Site
                        {
                          OFFSET -0.0145 -0.018 0.0127
                        }
                      }
                    }
                  }
                  JOINT rMid1
                  {
                    OFFSET -5.6954 0.21 2.1184
                    CHANNELS 6 Xposition Yposition Zposition Zrotation Xrotation Yrotation
                    JOINT rMid2
                    {
                      OFFSET -3.9766 -1.54 2.3863
                      CHANNELS 6 Xposition Yposition Zposition Zrotation Xrotation Yrotation
                      JOINT rMid2_End
                      {
                        OFFSET -1.4042 -1.926 1.125
                        CHANNELS 6 Xposition Yposition Zposition Zrotation Xrotation Yrotation
                        End Site
                        {
                          OFFSET -0.014 -0.0193 0.0113
                        }
                      }
                    }
                  }
                }
                JOINT rCarpal2
                {
                  OFFSET -2.0956 0.66 -0.3894
                  CHANNELS 6 Xposition Yposition Zposition Zrotation Xrotation Yrotation
                  JOINT rRing1
                  {
                    OFFSET -5.0395 -0.09 2.4971
                    CHANNELS 6 Xposition Yposition Zposition Zrotation Xrotation Yrotation
                    JOINT rRing2
                    {
                      OFFSET -3.7921 -1.552 1.4806
                      CHANNELS 6 Xposition Yposition Zposition Zrotation Xrotation Yrotation
                      JOINT rRing2_End
                      {
                        OFFSET -1.4655 -1.808 0.9609
                        CHANNELS 6 Xposition Yposition Zposition Zrotation Xrotation Yrotation
                        End Site
                        {
                          OFFSET -0.0147 -0.0181 0.0096
                        }
                      }
                    }
                  }
                  JOINT rPinky1
                  {
                    OFFSET -4.9141 -1.269 0.3592
                    CHANNELS 6 Xposition Yposition Zposition Zrotation Xrotation Yrotation
                    JOINT rPinky2
                    {
                      OFFSET -3.1477 -1.685 0.8462
                      CHANNELS 6 Xposition Yposition Zposition Zrotation Xrotation Yrotation
                      JOINT rPinky2_End
                      {
                        OFFSET -0.8055 -1.585 0.7955
                        CHANNELS 6 Xposition Yposition Zposition Zrotation Xrotation Yrotation
                        End Site
                        {
                          OFFSET -0.0081 -0.0158 0.008
                        }
                      }
                    }
                  }
                }
              }
            }
          }
        }
      }
    }
  }
  JOINT lThigh
  {
    OFFSET 8.367 -8.2066 0.5982
    CHANNELS 6 Xposition Yposition Zposition Zrotation Xrotation Yrotation
    JOINT lShin
    {
      OFFSET 2.1923 -43.463 -0.4932
      CHANNELS 6 Xposition Yposition Zposition Zrotation Xrotation Yrotation
      JOINT lFoot
      {
        OFFSET 0.7333 -45.8593 -2.6451
        CHANNELS 6 Xposition Yposition Zposition Zrotation Xrotation Yrotation
        End Site
        {
          OFFSET 2.6618 -4.2699 12.3931
        }
      }
    }
  }
  JOINT rThigh
  {
    OFFSET -8.367 -8.2066 0.5982
    CHANNELS 6 Xposition Yposition Zposition Zrotation Xrotation Yrotation
    JOINT rShin
    {
      OFFSET -2.1923 -43.463 -0.4931
      CHANNELS 6 Xposition Yposition Zposition Zrotation Xrotation Yrotation
      JOINT rFoot
      {
        OFFSET -0.7333 -45.8593 -2.6451
        CHANNELS 6 Xposition Yposition Zposition Zrotation Xrotation Yrotation
        End Site
        {
          OFFSET -2.6618 -4.2699 12.3931
        }
      }
    }
  }
}
MOTION
Frames:	4
Frame Time:	0.0333333
0 90.174 2.4664 0 0 -0 0 -1.186 -1.5018 0 0 -0 0 9.964 0.2134 0 0 -0 0 13.134 -3.2573 0 0 -0 0 20.686 -1.6905 0 0 -0 0 7.238 -0.1237 0 0 -0 1.7069 20.075 5.0056 0 0 -0 13.6458 -0.047 -4.849 1.66051 0.0835086 5.75766 28.3255 -0.9759 2.2888 -0.0175111 0.895433 15.7816 22.1583 -0.53 10.8316 7.95139e-016 -1.98785e-016 -0 0.786 0.112 2.5817 5.46658e-016 -3.97569e-016 -0 0.3601 -0.878 4.2331 5.96354e-016 0 -0 1.8127 -1.216 2.2227 3.97569e-016 1.98785e-016 9.54166e-015 0.9571 1.114 1.7695 1.49089e-016 -3.97569e-016 -0 4.1246 0.487 4.1451 6.4605e-016 0 3.18055e-015 3.4052 -1.454 2.7682 5.96354e-016 0 3.18055e-015 1.4531 -1.795 1.2713 8.94531e-016 -1.98785e-016 6.36111e-015 5.6954 0.21 2.1184 6.4605e-016 0 3.18055e-015 3.9766 -1.54 2.3863 5.96354e-016 0 3.18055e-015 1.4042 -1.926 1.125 8.94531e-016 -1.98785e-016 6.36111e-015 2.0956 0.66 -0.3894 1.49089e-016 -3.97569e-016 -0 5.0395 -0.09 2.4971 6.4605e-016 0 3.18055e-015 3.7921 -1.552 1.4806 5.96354e-016 0 3.18055e-015 1.4655 -1.808 0.9609 8.94531e-016 -1.98785e-016 6.36111e-015 4.9141 -1.269 0.3591 6.4605e-016 0 3.18055e-015 3.1477 -1.685 0.8462 5.96354e-016 0 3.18055e-015 0.8055 -1.585 0.7955 8.94531e-016 -1.98785e-016 6.36111e-015 -1.7069 20.075 5.0056 0 0 -0 -13.6458 -0.047 -4.849 -1.4496 0.0636048 -5.0245 -28.3255 -0.9759 2.2888 -1.74811 1.20616 -16.8394 -22.1583 -0.53 10.8316 -1.19271e-015 1.98785e-016 -3.18055e-015 -0.786 0.112 2.5817 -3.97569e-016 1.98785e-016 -3.18055e-015 -0.3601 -0.878 4.2331 -2.98177e-016 1.98785e-016 -3.18055e-015 -1.8127 -1.216 2.2227 -2.98177e-016 3.97569e-016 -0 -0.9571 1.114 1.7695 4.96962e-016 0 -6.36111e-015 -4.1246 0.487 4.1451 -9.93923e-017 3.97569e-016 -0 -3.4052 -1.454 2.7682 -8.94531e-016 5.96354e-016 -0 -1.4531 -1.795 1.2713 -3.97569e-016 3.97569e-016 -0 -5.6954 0.21 2.1184 -9.93923e-017 3.97569e-016 -0 -3.9766 -1.54 2.3863 -8.94531e-016 5.96354e-016 -0 -1.4042 -1.926 1.125 -3.97569e-016 3.97569e-016 -0 -2.0956 0.66 -0.3894 4.96962e-016 0 -6.36111e-015 -5.0395 -0.09 2.4971 -9.93923e-017 3.97569e-016 -0 -3.7921 -1.552 1.4806 -8.94531e-016 5.96354e-016 -0 -1.4655 -1.808 0.9609 -3.97569e-016 3.97569e-016 -0 -4.9141 -1.269 0.3592 -9.93923e-017 3.97569e-016 -0 -3.1477 -1.685 0.8462 -8.94531e-016 5.96354e-016 -0 -0.8055 -1.585 0.7955 -3.97569e-016 3.97569e-016 -0 8.367 -8.2066 0.5982 -4.66115 -1.03232 0.120763 2.1923 -43.463 -0.4932 0.00990601 1.55097 0.177175 0.7333 -45.8593 -2.6451 4.65196 -0.54114 -0.255042 -8.367 -8.2066 0.5982 4.66115 -1.03222 -0.120763 -2.1923 -43.463 -0.4931 -0.00990459 1.5509 -0.177176 -0.7333 -45.8593 -2.6451 -4.65196 -0.541171 0.255041 
1.75254 48.7193 4.88557 0 28.9934 -0 0 -1.186 -1.5018 -0.28531 1.63213 -0.608357 -2.22045e-016 9.964 0.2134 -0.553598 3.26717 -1.20931 6.10623e-016 13.134 -3.2573 -0.553598 3.26716 -1.20931 2.22045e-016 20.686 -1.6905 2.70447e-005 -19.0055 -8.46443e-006 2.22045e-016 7.238 -0.1237 1.53474e-007 0.358443 -7.41476e-007 1.7069 20.075 5.0056 -13.4097 -6.38119 -16.7875 13.6458 -0.047 -4.849 -48.4722 -0.653546 -20.233 28.3255 -0.9759 2.2888 -25.8134 39.0895 -50.5319 22.1583 -0.53 10.8316 55.9327 -21.9101 2.57568 0.786 0.112 2.5817 7.95139e-015 1.07344e-014 -9.54166e-015 0.3601 -0.878 4.2331 -1.33096e-006 2.11205e-006 2.10414e-006 1.8127 -1.216 2.2227 -2.38542e-015 7.95139e-016 9.54166e-015 0.9571 1.114 1.7695 1.59028e-015 0 -9.54166e-015 4.1246 0.487 4.1451 3.97569e-015 1.31198e-014 9.54166e-015 3.4052 -1.454 2.7682 -1.33096e-006 2.11205e-006 2.10414e-006 1.4531 -1.795 1.2713 -1.59028e-015 -3.97569e-016 1.27222e-014 5.6954 0.21 2.1184 3.97569e-015 1.31198e-014 9.54166e-015 3.9766 -1.54 2.3863 -1.33096e-006 2.11205e-006 2.10414e-006 1.4042 -1.926 1.125 -1.59028e-015 -3.97569e-016 1.27222e-014 2.0956 0.66 -0.3894 1.59028e-015 0 -9.54166e-015 5.0395 -0.09 2.4971 3.97569e-015 1.31198e-014 9.54166e-015 3.7921 -1.552 1.4806 -1.33096e-006 2.11205e-006 2.10414e-006 1.4655 -1.808 0.9609 -1.59028e-015 -3.97569e-016 1.27222e-014 4.9141 -1.269 0.3591 3.97569e-015 1.31198e-014 9.54166e-015 3.1477 -1.685 0.8462 -1.33096e-006 2.11205e-006 2.10414e-006 0.8055 -1.585 0.7955 -1.59028e-015 -3.97569e-016 1.27222e-014 -1.7069 20.075 5.0056 7.7102 -8.10455 17.1071 -13.6458 -0.047 -4.849 48.6893 -0.627003 22.9649 -28.3255 -0.9759 2.2888 24.9794 37.4526 50.0385 -22.1583 -0.53 10.8316 -45.4857 -20.0261 0.023149 -0.786 0.112 2.5817 -6.36111e-015 1.35174e-014 -3.18055e-015 -0.3601 -0.878 4.2331 1.56464e-006 2.13216e-006 -2.01745e-006 -1.8127 -1.216 2.2227 2.20695e-031 -3.97569e-015 3.18055e-015 -0.9571 1.114 1.7695 1.59028e-015 -7.95139e-016 -0 -4.1246 0.487 4.1451 -0 0 3.18055e-015 -3.4052 -1.454 2.7682 1.56464e-006 2.13216e-006 -2.01745e-006 -1.4531 -1.795 1.2713 -1.59028e-015 1.59028e-015 -3.18055e-015 -5.6954 0.21 2.1184 -0 0 3.18055e-015 -3.9766 -1.54 2.3863 1.56464e-006 2.13216e-006 -2.01745e-006 -1.4042 -1.926 1.125 -1.59028e-015 1.59028e-015 -3.18055e-015 -2.0956 0.66 -0.3894 1.59028e-015 -7.95139e-016 -0 -5.0395 -0.09 2.4971 -0 0 3.18055e-015 -3.7921 -1.552 1.4806 1.56464e-006 2.13216e-006 -2.01745e-006 -1.4655 -1.808 0.9609 -1.59028e-015 1.59028e-015 -3.18055e-015 -4.9141 -1.269 0.3592 -0 0 3.18055e-015 -3.1477 -1.685 0.8462 1.56464e-006 2.13216e-006 -2.01745e-006 -0.8055 -1.585 0.7955 -1.59028e-015 1.59028e-015 -3.18055e-015 8.367 -8.2066 0.5982 10.3436 -37.9944 21.1124 2.1923 -43.463 -0.4932 151.898 85.669 -147.428 0.7333 -45.8593 -2.6451 -23.3923 57.8758 33.5567 -8.367 -8.2066 0.5982 -10.5111 -38.0305 -21.2952 -2.1923 -43.463 -0.4931 -150.56 85.5878 146.128 -0.7333 -45.8593 -2.6451 24.534 58.9552 -34.6077 
1.75254 48.7107 5.2617 0 28.9934 -0 0 -1.186 -1.5018 -0.286316 1.76526 -0.605796 2.22045e-016 9.964 0.2134 -0.554327 3.53339 -1.20361 2.22045e-016 13.134 -3.2573 -0.554328 3.5334 -1.20361 2.22045e-016 20.686 -1.6905 4.40096e-005 -19.0055 1.11717e-005 -2.22045e-016 7.238 -0.1237 -2.14306e-007 0.431481 -6.74501e-007 1.7069 20.075 5.0056 -13.4097 -6.38124 -16.7875 13.6458 -0.047 -4.849 -48.5239 -0.641956 -19.9002 28.3255 -0.9759 2.2888 -25.8134 39.0896 -50.5319 22.1583 -0.53 10.8316 55.4412 -21.4583 1.71363 0.786 0.112 2.5817 -0 0 9.54166e-015 0.3601 -0.878 4.2331 2.38542e-015 7.95139e-016 3.18055e-015 1.8127 -1.216 2.2227 2.38542e-015 0 -3.18055e-015 0.9571 1.114 1.7695 -1.59028e-015 0 9.54166e-015 4.1246 0.487 4.1451 -1.59028e-015 -6.36111e-015 1.90833e-014 3.4052 -1.454 2.7682 1.59028e-015 -1.59028e-015 3.18055e-015 1.4531 -1.795 1.2713 7.95139e-016 0 -6.36111e-015 5.6954 0.21 2.1184 -1.59028e-015 -6.36111e-015 1.90833e-014 3.9766 -1.54 2.3863 1.59028e-015 -1.59028e-015 3.18055e-015 1.4042 -1.926 1.125 7.95139e-016 0 -6.36111e-015 2.0956 0.66 -0.3894 -1.59028e-015 0 9.54166e-015 5.0395 -0.09 2.4971 -1.59028e-015 -6.36111e-015 1.90833e-014 3.7921 -1.552 1.4806 1.59028e-015 -1.59028e-015 3.18055e-015 1.4655 -1.808 0.9609 7.95139e-016 0 -6.36111e-015 4.9141 -1.269 0.3591 -1.59028e-015 -6.36111e-015 1.90833e-014 3.1477 -1.685 0.8462 1.59028e-015 -1.59028e-015 3.18055e-015 0.8055 -1.585 0.7955 7.95139e-016 0 -6.36111e-015 -1.7069 20.075 5.0056 8.05944 -8.02456 16.9263 -13.6458 -0.047 -4.849 48.7407 -0.614881 22.5765 -28.3255 -0.9759 2.2888 24.9794 37.4526 50.0385 -22.1583 -0.53 10.8316 -45.2894 -19.7633 0.764929 -0.786 0.112 2.5817 -3.8481e-006 1.88639e-006 -1.457e-006 -0.3601 -0.878 4.2331 1.59028e-015 1.59028e-015 9.54166e-015 -1.8127 -1.216 2.2227 -3.53113e-031 6.36111e-015 3.18055e-015 -0.9571 1.114 1.7695 -5.29669e-031 4.77083e-015 6.36111e-015 -4.1246 0.487 4.1451 -3.8481e-006 1.88639e-006 -1.457e-006 -3.4052 -1.454 2.7682 -3.53113e-031 3.18055e-015 6.36111e-015 -1.4531 -1.795 1.2713 0 3.18055e-015 -0 -5.6954 0.21 2.1184 -3.8481e-006 1.88639e-006 -1.457e-006 -3.9766 -1.54 2.3863 -3.53113e-031 3.18055e-015 6.36111e-015 -1.4042 -1.926 1.125 0 3.18055e-015 -0 -2.0956 0.66 -0.3894 -5.29669e-031 4.77083e-015 6.36111e-015 -5.0395 -0.09 2.4971 -3.8481e-006 1.88639e-006 -1.457e-006 -3.7921 -1.552 1.4806 -3.53113e-031 3.18055e-015 6.36111e-015 -1.4655 -1.808 0.9609 0 3.18055e-015 -0 -4.9141 -1.269 0.3592 -3.8481e-006 1.88639e-006 -1.457e-006 -3.1477 -1.685 0.8462 -3.53113e-031 3.18055e-015 6.36111e-015 -0.8055 -1.585 0.7955 0 3.18055e-015 -0 8.367 -8.2066 0.5982 10.2541 -37.5035 20.979 2.1923 -43.463 -0.4932 149.542 86.0656 -145.101 0.7333 -45.8593 -2.6451 -23.3588 57.8533 33.5125 -8.367 -8.2066 0.5982 -10.4214 -37.5403 -21.1633 -2.1923 -43.463 -0.4931 -148.124 85.9763 143.724 -0.7333 -45.8593 -2.6451 24.499 58.9336 -34.5622 
1.75255 48.7019 5.63777 0 28.9934 -0 0 -1.186 -1.5018 -0.287318 1.8984 -0.60321 0 9.964 0.2134 -0.555068 3.79972 -1.19787 -1.11022e-016 13.134 -3.2573 -0.555068 3.79973 -1.19787 0 20.686 -1.6905 -1.46371e-005 -19.0046 -2.27182e-005 4.44089e-016 7.238 -0.1237 -1.01017e-007 0.504512 6.56385e-007 1.7069 20.075 5.0056 -13.4097 -6.38118 -16.7875 13.6458 -0.047 -4.849 -48.5757 -0.630652 -19.5673 28.3255 -0.9759 2.2888 -25.8133 39.0896 -50.5319 22.1583 -0.53 10.8316 54.958 -20.9991 0.857493 0.786 0.112 2.5817 1.59028e-015 0 -3.18055e-015 0.3601 -0.878 4.2331 -7.95139e-016 0 -6.36111e-015 1.8127 -1.216 2.2227 -7.95139e-016 -7.95139e-016 -3.18055e-015 0.9571 1.114 1.7695 7.95139e-016 -7.95139e-016 -3.18055e-015 4.1246 0.487 4.1451 -7.95139e-016 -3.97569e-015 -6.36111e-015 3.4052 -1.454 2.7682 0 0 -3.18055e-015 1.4531 -1.795 1.2713 1.59028e-015 -2.38542e-015 -6.36111e-015 5.6954 0.21 2.1184 -7.95139e-016 -3.97569e-015 -6.36111e-015 3.9766 -1.54 2.3863 0 0 -3.18055e-015 1.4042 -1.926 1.125 1.59028e-015 -2.38542e-015 -6.36111e-015 2.0956 0.66 -0.3894 7.95139e-016 -7.95139e-016 -3.18055e-015 5.0395 -0.09 2.4971 -7.95139e-016 -3.97569e-015 -6.36111e-015 3.7921 -1.552 1.4806 0 0 -3.18055e-015 1.4655 -1.808 0.9609 1.59028e-015 -2.38542e-015 -6.36111e-015 4.9141 -1.269 0.3591 -7.95139e-016 -3.97569e-015 -6.36111e-015 3.1477 -1.685 0.8462 0 0 -3.18055e-015 0.8055 -1.585 0.7955 1.59028e-015 -2.38542e-015 -6.36111e-015 -1.7069 20.075 5.0056 8.40891 -7.94554 16.745 -13.6458 -0.047 -4.849 48.7921 -0.603147 22.1881 -28.3255 -0.9759 2.2888 24.9794 37.4526 50.0385 -22.1583 -0.53 10.8316 -45.0969 -19.498 1.50505 -0.786 0.112 2.5817 -1.54192e-006 -2.1368e-006 2.03345e-006 -0.3601 -0.878 4.2331 -1.54192e-006 -2.1368e-006 2.03345e-006 -1.8127 -1.216 2.2227 -1.54192e-006 -2.1368e-006 2.03345e-006 -0.9571 1.114 1.7695 -3.18055e-015 1.59028e-015 6.36111e-015 -4.1246 0.487 4.1451 -1.54192e-006 -2.1368e-006 2.03345e-006 -3.4052 -1.454 2.7682 -1.54192e-006 -2.1368e-006 2.03345e-006 -1.4531 -1.795 1.2713 -1.54192e-006 -2.1368e-006 2.03345e-006 -5.6954 0.21 2.1184 -1.54192e-006 -2.1368e-006 2.03345e-006 -3.9766 -1.54 2.3863 -1.54192e-006 -2.1368e-006 2.03345e-006 -1.4042 -1.926 1.125 -1.54192e-006 -2.1368e-006 2.03345e-006 -2.0956 0.66 -0.3894 -3.18055e-015 1.59028e-015 6.36111e-015 -5.0395 -0.09 2.4971 -1.54192e-006 -2.1368e-006 2.03345e-006 -3.7921 -1.552 1.4806 -1.54192e-006 -2.1368e-006 2.03345e-006 -1.4655 -1.808 0.9609 -1.54192e-006 -2.1368e-006 2.03345e-006 -4.9141 -1.269 0.3592 -1.54192e-006 -2.1368e-006 2.03345e-006 -3.1477 -1.685 0.8462 -1.54192e-006 -2.1368e-006 2.03345e-006 -0.8055 -1.585 0.7955 -1.54192e-006 -2.1368e-006 2.03345e-006 8.367 -8.2066 0.5982 10.1659 -37.0136 20.8472 2.1923 -43.463 -0.4932 146.672 86.4534 -142.26 0.7333 -45.8593 -2.6451 -23.3256 57.8309 33.4687 -8.367 -8.2066 0.5982 -10.3332 -37.0504 -21.0331 -2.1923 -43.463 -0.4931 -145.178 86.3558 140.81 -0.7333 -45.8593 -2.6451 24.4642 58.912 -34.5169 
